<svg width="18" height="18" viewBox="0 0 18 18" fill="none" xmlns="http://www.w3.org/2000/svg"><path d="M9 1.5H4.875C4.37772 1.5 3.90081 1.69754 3.54917 2.04917C3.19754 2.40081 3 2.87772 3 3.375V16.875C3 16.3777 3.19754 15.9008 3.54917 15.5492C3.90081 15.1975 4.37772 15 4.875 15H9M9 1.5V15M9 1.5H13.125C13.6223 1.5 14.0992 1.69754 14.4508 2.04917C14.8025 2.40081 15 2.87772 15 3.375V16.875C15 16.3777 14.8025 15.9008 14.4508 15.5492C14.0992 15.1975 13.6223 15 13.125 15H9" stroke="#667085" stroke-width="1.5" stroke-linejoin="round"/></svg>
